# xmcd
#
# Track frame offsets:
#	150
#	48092
#	79382
#	124627
#	150370
#	172737
#	205327
#	229890
#	254587
#	278997
#
# Disc length: 4112 seconds
#
# Revision: 0
# Processed by: cddbd v1.5.1PL0 Copyright (c) Steve Scherf et al.
# Submitted via: dBpowerAMP V4.0
#
DISCID=7f100e0a
DTITLE=Various Artist - Power Tranz Vol. 1
DYEAR=1900
DGENRE=Techno
TTITLE0=Remy Verheyen - Spacious Flow
TTITLE1=E144 - Thunderstorm In Disneyland
TTITLE2=Reverbed - E-Mission
TTITLE3=Annabis - Tweak Speak
TTITLE4=Scorpio Control - First Impression
TTITLE5=Remy Verheyen - Niet
TTITLE6=E144 - Gargel Blaster
TTITLE7=Toxic TV - Meltdown
TTITLE8=T.N.T. - Bass Mokanik
TTITLE9=Cryptic - Dadeluc
EXTD=
EXTT0=
EXTT1=
EXTT2=
EXTT3=
EXTT4=
EXTT5=
EXTT6=
EXTT7=
EXTT8=
EXTT9=
PLAYORDER=
